<?xml version="1.0" standalone="no"?>
<!DOCTYPE svg PUBLIC "-//W3C//DTD SVG 20010904//EN"
 "http://www.w3.org/TR/2001/REC-SVG-20010904/DTD/svg10.dtd">
<svg version="1.0" xmlns="http://www.w3.org/2000/svg"
 width="108.000000pt" height="108.000000pt" viewBox="0 0 108.000000 108.000000"
 preserveAspectRatio="xMidYMid meet">
<metadata>
Created by potrace 1.16, written by Peter Selinger 2001-2019
</metadata>
<g transform="translate(0.000000,108.000000) scale(0.100000,-0.100000)"
fill="#000000" stroke="none">
<path d="M480 1013 c-19 -3 -41 -10 -49 -16 -7 -7 -34 -19 -60 -28 -28 -10
-51 -25 -58 -40 -16 -30 -17 -99 -2 -136 7 -15 13 -49 15 -74 4 -71 59 -182
103 -213 39 -28 81 -34 81 -13 0 6 -28 26 -63 43 -57 28 -63 35 -79 80 -9 27
-17 77 -17 111 -1 60 0 63 29 78 21 11 29 22 27 37 -1 13 3 23 8 24 6 0 21 4
35 8 16 4 36 1 55 -8 20 -10 57 -16 107 -16 51 0 79 -4 85 -12 4 -7 13 -38 19
-68 9 -42 13 -50 19 -35 4 11 16 39 27 62 38 82 4 164 -85 207 -34 15 -111 19
-197 9z"/>
</g>
</svg>
